<?xml version="1.0" encoding="UTF-8"?>
<svg version="1.1" xmlns="http://www.w3.org/2000/svg" width="500" height="500">
<path d="M0 0 C165 0 330 0 500 0 C500 165 500 330 500 500 C335 500 170 500 0 500 C0 335 0 170 0 0 Z " fill="#FEFEFE" transform="translate(0,0)"/>
<path d="M0 0 C10.52205226 7.32593399 17.2110179 18.59249422 20 31 C21.21953077 47.95147772 18.34261909 61.17657845 7.3046875 74.48828125 C5 77 5 77 2 79 C2.78479736 79.39155273 2.78479736 79.39155273 3.58544922 79.79101562 C22.9641257 89.52938682 22.9641257 89.52938682 31 97 C31.67804688 97.59941406 32.35609375 98.19882812 33.0546875 98.81640625 C45.39869993 110.31987309 55.2505112 127.5275049 58.625 144.0625 C57.59779042 148.89038503 54.4465411 151.6076877 51 155 C50.20078125 155.79792969 49.4015625 156.59585938 48.578125 157.41796875 C25.43998123 179.49504379 -5.65265729 188.8863505 -37.19921875 188.25390625 C-43.68817422 187.99946248 -49.75107397 186.71845466 -56 185 C-57.1240625 184.73316406 -58.248125 184.46632813 -59.40625 184.19140625 C-76.11300841 179.9582749 -91.2577352 171.02848482 -104.375 160 C-105.25019287 159.27055176 -105.25019287 159.27055176 -106.14306641 158.52636719 C-111.0361363 154.29520955 -115.57159039 150.16309094 -116.46875 143.5390625 C-115.94594295 139.59186925 -114.94177756 136.06424098 -113.5 132.375 C-113.23227783 131.68132324 -112.96455566 130.98764648 -112.6887207 130.27294922 C-108.1492563 118.97409424 -101.46415163 109.71972993 -93 101 C-92.38769531 100.31421875 -91.77539062 99.6284375 -91.14453125 98.921875 C-83.51151783 90.65413338 -72.6813704 83.56877563 -62 80 C-61.34 80 -60.68 80 -60 80 C-60 79.34 -60 78.68 -60 78 C-60.58910156 77.7421875 -61.17820313 77.484375 -61.78515625 77.21875 C-69.88125159 72.76375574 -74.15682649 63.1932222 -77.11328125 54.86328125 C-80.12800577 41.72864447 -79.39969242 26.9816666 -72.421875 15.375 C-55.38386755 -10.41225452 -26.25605557 -15.59183132 0 0 Z " fill="#030303" transform="translate(142,277)"/>
<path d="M0 0 C9.51994224 8.74414584 16.15556231 20.85139698 17.05078125 33.82421875 C17.45326631 49.88862246 12.29790045 62.13594736 1.5625 74.015625 C-0.171875 75.59765625 -0.171875 75.59765625 -2.171875 75.59765625 C-2.171875 76.25765625 -2.171875 76.91765625 -2.171875 77.59765625 C-1.4603125 77.71238281 -0.74875 77.82710938 -0.015625 77.9453125 C18.31067106 82.14928426 33.73768895 98.57106324 43.63671875 113.65234375 C48.84876765 122.16250883 54.75188432 133.01172198 54.4453125 143.1796875 C51.62676882 154.22195672 36.06957429 163.15369245 26.68701172 168.83666992 C19.06437021 173.28124307 11.09552992 176.5592897 2.828125 179.59765625 C2.01859375 179.91605469 1.2090625 180.23445312 0.375 180.5625 C-24.00487511 189.63723129 -55.05505736 186.39492826 -78.609375 176.29296875 C-88.67480732 171.50305907 -97.73832797 165.95458026 -106.171875 158.59765625 C-107.52345703 157.42783203 -107.52345703 157.42783203 -108.90234375 156.234375 C-118.67554663 147.61759728 -118.67554663 147.61759728 -119.67578125 143.546875 C-120.10497316 126.98006743 -108.3012819 110.32816836 -97.40625 98.83203125 C-87.82876969 89.25455094 -77.44074609 81.19599417 -64.171875 77.59765625 C-64.59597656 77.14777344 -65.02007812 76.69789062 -65.45703125 76.234375 C-76.45780102 64.16979453 -83.06715237 51.29357462 -82.421875 34.6171875 C-81.27100778 20.71686932 -75.73388246 8.93735424 -65.171875 -0.40234375 C-44.94943999 -15.43472896 -20.10220202 -15.22518995 0 0 Z " fill="#030303" transform="translate(283.171875,27.40234375)"/>
<path d="M0 0 C10.29387937 6.7902397 18.75981317 16.94285423 22.1953125 29.01171875 C24.36606608 43.71751017 22.4951 57.94235589 14.59375 70.7109375 C9.03033211 77.99264645 9.03033211 77.99264645 5.59375 79.7109375 C5.59375 80.3709375 5.59375 81.0309375 5.59375 81.7109375 C6.10421875 81.91847656 6.6146875 82.12601562 7.140625 82.33984375 C30.1223163 92.07853918 47.56322246 109.22282551 57.03125 132.4609375 C61.54787286 144.27295318 61.54787286 144.27295318 60.59375 148.7109375 C58.67606152 151.84414544 56.25374808 154.20101713 53.59375 156.7109375 C53.07554687 157.28457031 52.55734375 157.85820312 52.0234375 158.44921875 C33.03589662 179.20193303 2.93561514 188.33269617 -24.2734375 190.0625 C-52.82310011 191.23910587 -79.93224532 180.09487593 -101.40625 161.7109375 C-102.06238281 161.18757812 -102.71851563 160.66421875 -103.39453125 160.125 C-112.98736039 152.36035457 -112.98736039 152.36035457 -113.6640625 146.46484375 C-112.85352338 131.5652276 -103.00223222 116.56293833 -93.40625 105.7109375 C-92.61605469 104.81375 -91.82585937 103.9165625 -91.01171875 102.9921875 C-81.91341803 93.2800584 -70.46920107 84.97667527 -57.40625 81.7109375 C-57.40625 81.0509375 -57.40625 80.3909375 -57.40625 79.7109375 C-57.99535156 79.45183594 -58.58445312 79.19273437 -59.19140625 78.92578125 C-67.85066431 74.17617057 -71.84804059 63.95617761 -74.515625 54.9765625 C-77.3893886 42.8704943 -76.72166355 29.51361857 -70.40625 18.7109375 C-69.93703125 17.89367187 -69.4678125 17.07640625 -68.984375 16.234375 C-61.79919191 4.68400004 -51.67036924 -2.61086995 -38.67578125 -6.59765625 C-25.19924394 -9.44753332 -11.77442116 -6.93608143 0 0 Z " fill="#030303" transform="translate(414.40625,275.2890625)"/>
<path d="M0 0 C1.66796875 1.84765625 1.66796875 1.84765625 3.1875 4.0625 C5.20624539 6.49467037 6.40899554 7.80299851 9.42578125 8.80859375 C12.28635434 9.0212919 14.2722772 8.90777913 17 8 C19.18289577 6.11175366 20.77331953 4.20735635 22.4296875 1.84765625 C24 0 24 0 25.80859375 -0.90234375 C29.01844659 -1.04538532 31.26613217 0.08689384 34.1875 1.375 C35.25355469 1.83648437 36.31960938 2.29796875 37.41796875 2.7734375 C40 4 40 4 41 5 C41.16951541 8.12285052 41.29716733 11.2381912 41.34179688 14.36523438 C41.47769307 17.59829968 41.83083569 19.73476707 43.58203125 22.48046875 C46.95840225 24.60229156 49.42851102 24.18905336 53.375 24 C56.18260298 24.00674175 58.19980064 24.33111416 61 25 C64.86189281 29.24612835 66.54249848 34.03713303 67.41015625 39.65625 C66.82440784 43.00338374 65.20857104 43.7938098 62.5 45.75 C58.29168138 49.30918133 58.29168138 49.30918133 56.875 54.4375 C57.27597601 58.8255393 59.42266469 60.7497577 62.5625 63.6875 C63.40941406 64.37199219 64.25632812 65.05648437 65.12890625 65.76171875 C67 68 67 68 66.87890625 70.9375 C66.58886719 71.948125 66.29882812 72.95875 66 74 C65.78085937 74.90363281 65.56171875 75.80726563 65.3359375 76.73828125 C64.20664035 79.76351223 63.29384065 81.69745407 61 84 C56.96105163 84.82747004 53.61913072 84.88112036 49.49609375 84.7421875 C46.01118995 84.7250934 46.01118995 84.7250934 43.53515625 86.546875 C41.40653859 89.94833019 41.80969537 92.40239082 42 96.375 C41.99325166 99.1823105 41.66819347 101.19966192 41 104 C37.43529137 107.2913414 33.71781198 108.9462755 29 110 C25.70656255 109.849858 24.46347201 109.4455737 22.078125 107.15234375 C21.47484375 106.42144531 20.8715625 105.69054687 20.25 104.9375 C17.4510254 102.03330079 15.58350918 100.33176985 11.5 99.9375 C8.29319953 100.19095846 7.2156723 100.78753472 4.8984375 103.0703125 C3.55655518 104.7230556 2.22053722 106.38057848 0.890625 108.04296875 C-1 110 -1 110 -4.375 110.375 C-5.57125 109.92125 -6.7675 109.4675 -8 109 C-9.299375 108.67708984 -9.299375 108.67708984 -10.625 108.34765625 C-13.8323699 107.28612616 -15.65193952 106.4562245 -18 104 C-18.84469213 99.7590328 -18.94361458 95.9166246 -18.83984375 91.6171875 C-18.74237825 88.17361459 -18.74237825 88.17361459 -19.9921875 86.05078125 C-23.22383886 84.35950846 -26.61619279 84.4216666 -30.1875 84.3125 C-30.93708984 84.27833984 -31.68667969 84.24417969 -32.45898438 84.20898438 C-34.30546838 84.12665706 -36.15270994 84.06164719 -38 84 C-39.03513247 81.9237343 -40.05266211 79.83868521 -41.0625 77.75 C-41.63097656 76.58984375 -42.19945312 75.4296875 -42.78515625 74.234375 C-44 71 -44 71 -43.96875 68.80859375 C-42.60746761 66.26716735 -40.73778454 65.02961381 -38.4375 63.3125 C-35.30377595 60.59190356 -33.27026978 58.78579539 -32.8125 54.5625 C-33.2228933 49.99292847 -35.67787679 48.13266638 -39.0625 45.25 C-40.00222656 44.55390625 -40.94195312 43.8578125 -41.91015625 43.140625 C-42.94462891 42.08101563 -42.94462891 42.08101563 -44 41 C-43.94881902 37.06546219 -42.09359474 33.71200933 -40.4375 30.1875 C-39.98246094 29.21167969 -39.52742187 28.23585938 -39.05859375 27.23046875 C-38.70925781 26.49441406 -38.35992187 25.75835937 -38 25 C-36.31970703 24.94392578 -36.31970703 24.94392578 -34.60546875 24.88671875 C-33.1327791 24.82105743 -31.66012434 24.75461014 -30.1875 24.6875 C-29.44951172 24.66494141 -28.71152344 24.64238281 -27.95117188 24.61914062 C-25.0559798 24.47503604 -22.58622114 24.30679667 -19.9921875 22.94921875 C-18.69338278 20.39762996 -18.82246185 18.11724075 -18.88916016 15.29907227 C-18.96963975 11.67952301 -18.72600225 8.57104659 -18 5 C-15.02256724 2.08671301 -11.98624387 1.02521607 -8 0 C-4.63602252 -1.12132583 -3.3280915 -1.08175913 0 0 Z " fill="#FAFDFA" transform="translate(241,242)"/>
<path d="M0 0 C1.07668945 -0.00644531 2.15337891 -0.01289062 3.26269531 -0.01953125 C13.76052549 0.14756002 23.4753328 2.27545413 32.8125 7.125 C33.48732422 7.47054932 34.16214844 7.81609863 34.85742188 8.17211914 C51.23961819 16.86785441 63.24935331 31.2504333 70.21875 48.30859375 C70.8424798 50.88147917 70.78097866 52.06669491 69.75 54.5 C55.8700217 70.58424285 31.41274 80.77989677 10.75 82.5 C-0.01608343 83.00483623 -10.7207122 83.02354832 -21.25 80.5 C-22.87035156 80.13261719 -22.87035156 80.13261719 -24.5234375 79.7578125 C-37.92885115 76.35374117 -50.38184134 70.04462129 -61.25 61.5 C-62.12140625 60.8503125 -62.9928125 60.200625 -63.890625 59.53125 C-65.15132812 58.52578125 -65.15132812 58.52578125 -66.4375 57.5 C-67.19417969 56.901875 -67.95085937 56.30375 -68.73046875 55.6875 C-70.25 53.5 -70.25 53.5 -70.19921875 50.19921875 C-69.19216777 46.27462092 -67.7957533 42.85486906 -65.875 39.3125 C-65.35305054 38.34292358 -65.35305054 38.34292358 -64.82055664 37.35375977 C-60.93097407 30.46294039 -55.88888664 24.99364259 -50.25 19.5 C-49.66734375 18.90832031 -49.0846875 18.31664062 -48.484375 17.70703125 C-35.18408944 5.17923702 -17.82297709 0.10112327 0 0 Z " fill="#FDFDFD" transform="translate(250.25,114.5)"/>
<path d="M0 0 C10.60351709 8.89218996 21.68866096 21.6624031 24.34375 35.734375 C23.64237331 39.4984299 21.23130115 41.21108585 18.375 43.5 C17.79331055 43.97526123 17.21162109 44.45052246 16.61230469 44.94018555 C5.0457277 54.09833329 -7.98668131 60.19098933 -22.125 64.25 C-22.78902832 64.44432617 -23.45305664 64.63865234 -24.13720703 64.83886719 C-47.57156885 70.90423142 -74.40409194 66.11331051 -95.13525391 54.08349609 C-103.09873535 49.21638653 -110.4146127 43.76034866 -117.125 37.25 C-112.92332071 19.16277104 -99.97202361 4.04687941 -84.5 -5.8125 C-78.65046138 -9.20469819 -72.52115108 -11.59353685 -66.125 -13.75 C-65.40054688 -13.99878906 -64.67609375 -14.24757813 -63.9296875 -14.50390625 C-42.48076489 -20.51801592 -17.15826236 -13.13348477 0 0 Z " fill="#FDFDFD" transform="translate(434.125,382.75)"/>
<path d="M0 0 C11.68731263 8.94584423 24.16100716 22.63366393 26.85546875 37.69921875 C25.84577542 43.29204178 18.85200427 46.97508401 14.40625 50.1875 C-8.77302276 66.13882749 -36.31515205 72.15285558 -64.09375 67.0625 C-83.78681482 62.71546824 -99.84371495 52.63737998 -114.59375 39.1875 C-111.61125897 26.34858622 -104.79768785 16.43715277 -95.59375 7.1875 C-94.85640625 6.41535156 -94.1190625 5.64320313 -93.359375 4.84765625 C-68.35511281 -19.69511788 -27.82319478 -19.44271443 0 0 Z " fill="#FDFDFD" transform="translate(156.59375,380.8125)"/>
<path d="M0 0 C6.81902645 4.81623546 12.89973787 11.97127466 14.375 20.375 C15.11946304 29.2899449 15.37942402 37.59553712 10.375 45.375 C9.95089844 46.06980469 9.52679688 46.76460937 9.08984375 47.48046875 C4.46634436 54.34488428 -3.00970742 59.97117685 -11.125 62 C-21.80258476 63.14402694 -30.35107057 62.88524795 -39.29296875 56.45703125 C-47.60599829 49.51927396 -52.51144377 40.96744062 -53.9140625 30.14453125 C-54.46171592 21.07942603 -51.02082738 12.85467684 -45.25 5.9375 C-32.68733941 -7.08444065 -15.58046387 -9.47460641 0 0 Z " fill="#FCFCFC" transform="translate(269.625,36.625)"/>
<path d="M0 0 C9.25094522 5.69939404 15.2105377 13.82205695 18.13671875 24.31640625 C19.28888366 34.87345221 17.33768507 43.0785194 11.19921875 51.69140625 C6.09802873 58.02654997 -0.20467824 61.76353858 -7.86328125 64.31640625 C-19.99668419 65.35943001 -29.07597579 64.39050451 -39.01171875 56.640625 C-45.64590719 50.55228751 -49.34715261 42.27534596 -50.12109375 33.33984375 C-50.48276413 23.04429348 -48.41444762 16.04432391 -41.86328125 8.06640625 C-30.91769144 -3.19902222 -14.51009887 -7.07028587 0 0 Z " fill="#FDFDFD" transform="translate(403.86328125,286.68359375)"/>
<path d="M0 0 C8.64836172 5.32814972 13.758327 12.37042687 17.51171875 21.75390625 C19.46333121 32.87809725 17.53604331 41.90637075 11.73828125 51.671875 C6.63985987 58.36193554 -1.60685656 63.21057084 -9.90478516 64.67724609 C-20.47867987 65.76628498 -29.75017606 63.88855894 -38.11328125 57.12890625 C-46.02344455 49.65107981 -49.85957845 41.84407874 -50.17578125 30.94140625 C-49.96887117 20.31596531 -46.55833039 13.22997047 -39.234375 5.625 C-28.81712721 -4.01880944 -12.92342272 -6.29715165 0 0 Z " fill="#FDFDFD" transform="translate(128.86328125,286.68359375)"/>
<path d="M0 0 C1.66796875 1.84765625 1.66796875 1.84765625 3.1875 4.0625 C5.20624539 6.49467037 6.40899554 7.80299851 9.42578125 8.80859375 C12.28635434 9.0212919 14.2722772 8.90777913 17 8 C19.18289577 6.11175366 20.77331953 4.20735635 22.4296875 1.84765625 C24 0 24 0 25.80859375 -0.90234375 C29.01844659 -1.04538532 31.26613217 0.08689384 34.1875 1.375 C35.25355469 1.83648437 36.31960938 2.29796875 37.41796875 2.7734375 C40 4 40 4 41 5 C41.16951541 8.12285052 41.29716733 11.2381912 41.34179688 14.36523438 C41.47769307 17.59829968 41.83083569 19.73476707 43.58203125 22.48046875 C46.95840225 24.60229156 49.42851102 24.18905336 53.375 24 C56.18260298 24.00674175 58.19980064 24.33111416 61 25 C64.86189281 29.24612835 66.54249848 34.03713303 67.41015625 39.65625 C66.82440784 43.00338374 65.20857104 43.7938098 62.5 45.75 C58.29168138 49.30918133 58.29168138 49.30918133 56.875 54.4375 C57.27597601 58.8255393 59.42266469 60.7497577 62.5625 63.6875 C63.40941406 64.37199219 64.25632812 65.05648437 65.12890625 65.76171875 C67 68 67 68 66.87890625 70.9375 C66.58886719 71.948125 66.29882812 72.95875 66 74 C65.78085937 74.90363281 65.56171875 75.80726563 65.3359375 76.73828125 C64.20664035 79.76351223 63.29384065 81.69745407 61 84 C56.96105163 84.82747004 53.61913072 84.88112036 49.49609375 84.7421875 C46.01118995 84.7250934 46.01118995 84.7250934 43.53515625 86.546875 C41.40653859 89.94833019 41.80969537 92.40239082 42 96.375 C41.99325166 99.1823105 41.66819347 101.19966192 41 104 C37.43529137 107.2913414 33.71781198 108.9462755 29 110 C25.70656255 109.849858 24.46347201 109.4455737 22.078125 107.15234375 C21.47484375 106.42144531 20.8715625 105.69054687 20.25 104.9375 C17.4510254 102.03330079 15.58350918 100.33176985 11.5 99.9375 C8.29319953 100.19095846 7.2156723 100.78753472 4.8984375 103.0703125 C3.55655518 104.7230556 2.22053722 106.38057848 0.890625 108.04296875 C-1 110 -1 110 -4.375 110.375 C-5.57125 109.92125 -6.7675 109.4675 -8 109 C-9.299375 108.67708984 -9.299375 108.67708984 -10.625 108.34765625 C-13.8323699 107.28612616 -15.65193952 106.4562245 -18 104 C-18.84469213 99.7590328 -18.94361458 95.9166246 -18.83984375 91.6171875 C-18.74237825 88.17361459 -18.74237825 88.17361459 -19.9921875 86.05078125 C-23.22383886 84.35950846 -26.61619279 84.4216666 -30.1875 84.3125 C-30.93708984 84.27833984 -31.68667969 84.24417969 -32.45898438 84.20898438 C-34.30546838 84.12665706 -36.15270994 84.06164719 -38 84 C-39.03513247 81.9237343 -40.05266211 79.83868521 -41.0625 77.75 C-41.63097656 76.58984375 -42.19945312 75.4296875 -42.78515625 74.234375 C-44 71 -44 71 -43.96875 68.80859375 C-42.60746761 66.26716735 -40.73778454 65.02961381 -38.4375 63.3125 C-35.30377595 60.59190356 -33.27026978 58.78579539 -32.8125 54.5625 C-33.2228933 49.99292847 -35.67787679 48.13266638 -39.0625 45.25 C-40.00222656 44.55390625 -40.94195312 43.8578125 -41.91015625 43.140625 C-42.94462891 42.08101563 -42.94462891 42.08101563 -44 41 C-43.94881902 37.06546219 -42.09359474 33.71200933 -40.4375 30.1875 C-39.98246094 29.21167969 -39.52742187 28.23585938 -39.05859375 27.23046875 C-38.70925781 26.49441406 -38.35992187 25.75835937 -38 25 C-36.31970703 24.94392578 -36.31970703 24.94392578 -34.60546875 24.88671875 C-33.1327791 24.82105743 -31.66012434 24.75461014 -30.1875 24.6875 C-29.44951172 24.66494141 -28.71152344 24.64238281 -27.95117188 24.61914062 C-25.0559798 24.47503604 -22.58622114 24.30679667 -19.9921875 22.94921875 C-18.69338278 20.39762996 -18.82246185 18.11724075 -18.88916016 15.29907227 C-18.96963975 11.67952301 -18.72600225 8.57104659 -18 5 C-15.02256724 2.08671301 -11.98624387 1.02521607 -8 0 C-4.63602252 -1.12132583 -3.3280915 -1.08175913 0 0 Z M27 4 C25.2675 5.670625 25.2675 5.670625 23.5 7.375 C22.8503125 8.00148437 22.200625 8.62796875 21.53125 9.2734375 C19.77882569 10.86475907 19.77882569 10.86475907 20 13 C6.58046041 14.24350946 6.58046041 14.24350946 2.69140625 11.18359375 C1.58928358 9.72003593 0.51694888 8.23341263 -0.51953125 6.72265625 C-1.25236328 5.86994141 -1.25236328 5.86994141 -2 5 C-5.68794765 4.65749408 -5.68794765 4.65749408 -9 6 C-9.72058594 6.20367187 -10.44117188 6.40734375 -11.18359375 6.6171875 C-11.78300781 7.07351562 -12.38242188 7.52984375 -13 8 C-13.48208974 11.3765132 -13.48208974 11.3765132 -13.375 15.25 C-13.68102006 23.81248193 -13.68102006 23.81248193 -16.125 26.875 C-21.05451964 30.77957001 -28.97987159 29.98468161 -35 30 C-35.515625 31.0725 -36.03125 32.145 -36.5625 33.25 C-36.85253906 33.85328125 -37.14257812 34.4565625 -37.44140625 35.078125 C-38.14533065 37.50001872 -37.98497854 38.68435335 -37 41 C-35.35662051 42.22488977 -35.35662051 42.22488977 -33.4375 43.3125 C-30.59598898 45.61164792 -30.03577726 46.83241177 -29.2578125 50.4765625 C-28.77419144 60.28439753 -28.77419144 60.28439753 -31.80859375 64.53125 C-33.79274687 66.25721563 -35.72149964 67.69291385 -38 69 C-37.39009109 72.55780196 -36.4216319 75.6828589 -35 79 C-33.99839844 78.99097656 -32.99679688 78.98195313 -31.96484375 78.97265625 C-19.87951032 79.12283172 -19.87951032 79.12283172 -15.5625 82.6875 C-11.3165149 87.84333905 -12.45230199 94.7319005 -13 101 C-11.76115681 101.72767003 -10.50831659 102.43154815 -9.25 103.125 C-8.55390625 103.51945312 -7.8578125 103.91390625 -7.140625 104.3203125 C-5.00490253 105.22262607 -5.00490253 105.22262607 -2.87890625 104.34375 C-0.80437484 102.86009344 0.01277675 101.54567182 1.3125 99.375 C3.70606729 96.35648042 4.80439956 96.02401391 8.72265625 95.54296875 C12.49776356 95.48646994 16.23798744 95.69846464 20 96 C20.26554687 96.60328125 20.53109375 97.2065625 20.8046875 97.828125 C22.03600928 100.06542862 23.13278943 101.19087868 25.125 102.75 C26.07375 103.4925 27.0225 104.235 28 105 C31.24562358 104.27546444 33.61011599 103.35398447 36 101 C36.59785079 97.78799246 36.59785079 97.78799246 36.5625 94.1875 C36.74635549 86.16471519 36.74635549 86.16471519 39.6875 82.6875 C44.80232008 78.41082271 51.64907432 78.93834053 58 79 C59.32 76.03 60.64 73.06 62 70 C61.3503125 69.50113281 60.700625 69.00226563 60.03125 68.48828125 C56.24431439 65.23315295 53.43794213 62.68486068 52.15625 57.75390625 C51.94406222 53.16534554 51.97897251 49.57604756 54.5234375 45.6484375 C56.83169874 43.28173926 59.04286814 41.47856593 62 40 C61.52449439 38.51965236 61.04448784 37.04074979 60.5625 35.5625 C60.29566406 34.73878906 60.02882813 33.91507812 59.75390625 33.06640625 C59.17844506 31.03780412 59.17844506 31.03780412 58 30 C55.79191629 29.94672184 53.58348658 29.90754612 51.375 29.875 C43.24280105 29.28643106 43.24280105 29.28643106 39.6875 26.3125 C35.41082271 21.19767992 35.93834053 14.35092568 36 8 C31.545 6.02 31.545 6.02 27 4 Z " fill="#0BB613" transform="translate(241,242)"/>
<path d="M0 0 C1.19822388 0.00918457 1.19822388 0.00918457 2.4206543 0.01855469 C8.3943486 0.17708899 13.14076252 1.06909615 18.1875 4.4375 C19.074375 4.994375 19.96125 5.55125 20.875 6.125 C27.49905371 12.74905371 31.44596408 20.22478326 31.5625 29.6875 C31.40675992 38.79310349 28.62619455 45.99880545 22.1875 52.4375 C15.92267678 58.19258695 8.03193812 60.42861391 -0.375 60.875 C-8.90365747 60.49493505 -15.79806565 56.5240835 -21.828125 50.67578125 C-28.59970696 43.03775671 -29.8060922 35.42155555 -29.28515625 25.50390625 C-28.45053093 16.41925022 -23.94982939 10.9201132 -17.19140625 5.12890625 C-11.3942502 1.00711878 -6.95873452 -0.09000554 0 0 Z M-21.71875 17.60546875 C-25.34706706 23.68289983 -24.73208209 32.42531062 -23.19921875 39.11328125 C-20.37908367 46.30648922 -15.02413786 50.55899484 -8.5 54.375 C-0.77605067 56.60054472 6.0822483 56.24851911 13.2578125 52.55859375 C19.71916577 48.80473061 23.5693631 43.61757346 25.80859375 36.44921875 C27.2658644 28.71216326 26.27415433 22.17712993 22.1875 15.4375 C20.02083333 12.60416667 20.02083333 12.60416667 17.1875 10.4375 C16.6925 9.97214844 16.1975 9.50679688 15.6875 9.02734375 C9.49501308 4.06506071 1.69013387 4.35331884 -5.87304688 5.10791016 C-13.16334283 6.34681997 -17.64628296 11.87007766 -21.71875 17.60546875 Z " fill="#0DB716" transform="translate(251.8125,266.5625)"/>
<path d="M0 0 C4.55235431 1.33892774 8.4306354 3.96242706 11 8 C10.76950801 11.50627211 9.10699258 13.32532649 6.6875 15.75 C6.09324219 16.36359375 5.49898438 16.9771875 4.88671875 17.609375 C3 19 3 19 -1 19 C-0.125 14.125 -0.125 14.125 1 13 C-15.24726251 12.04427868 -30.39480194 19.03544398 -42.47265625 29.5703125 C-55.30444239 41.90628001 -61.1084084 55.95917962 -65 73 C-66.32 72.67 -67.64 72.34 -69 72 C-68.61046793 54.32940866 -59.7049598 39.16067096 -47.75390625 26.6484375 C-33.90208745 13.41073875 -17.69397187 7.94090418 1 6 C0.01 5.01 0.01 5.01 -1 4 C-0.625 1.875 -0.625 1.875 0 0 Z " fill="#0BB614" transform="translate(250,217)"/>
<path d="M0 0 C13.08489433 0 25.49162978 7.36107219 35 16 C35.74507813 16.65355469 36.49015625 17.30710938 37.2578125 17.98046875 C53.61141223 33.19763189 58.55499743 52.55311978 60 74 C60.66 73.34 61.32 72.68 62 72 C64.125 72.375 64.125 72.375 66 73 C65.27620384 77.37134786 63.19695727 79.15729175 59.83203125 81.84375 C58 83 58 83 55.4375 83.3125 C51.82751124 81.3686599 48.98738583 78.60867426 47 75 C47.3359375 72.76953125 47.3359375 72.76953125 48 71 C51.875 71.875 51.875 71.875 53 73 C53.94228716 55.89923307 48.8560367 39.38495361 37.5 26.4375 C36.02042793 24.93789988 34.52181625 23.45671182 33 22 C32.11634766 21.06994141 32.11634766 21.06994141 31.21484375 20.12109375 C24.08169181 13.11335987 13.97263281 8.62717515 4.5625 5.515625 C3.386875 5.01546875 2.21125 4.5153125 1 4 C0.27734375 1.90527344 0.27734375 1.90527344 0 0 Z " fill="#0CB614" transform="translate(266,226)"/>
<path d="M0 0 C2.40406534 1.08510342 3.94023217 2.37033418 5.8203125 4.21875 C6.75810547 5.11013672 6.75810547 5.11013672 7.71484375 6.01953125 C9.0078125 7.90625 9.0078125 7.90625 8.70703125 10.13671875 C8.47628906 10.72066406 8.24554688 11.30460937 8.0078125 11.90625 C6.6878125 11.57625 5.3678125 11.24625 4.0078125 10.90625 C3.77713571 24.61504189 11.42688307 37.72576868 20.0078125 47.90625 C20.59949219 48.62167969 21.19117188 49.33710938 21.80078125 50.07421875 C29.7489059 58.83579752 42.42904379 65.79049626 53.9453125 68.09375 C54.71746094 68.25230469 55.48960937 68.41085937 56.28515625 68.57421875 C57.13787109 68.73857422 57.13787109 68.73857422 58.0078125 68.90625 C58.3378125 70.22625 58.6678125 71.54625 59.0078125 72.90625 C50.95366785 75.17983696 42.43017157 70.8477131 35.3203125 67.15625 C16.45019112 56.1897012 4.24618796 40.01941318 -1.30078125 19.125 C-2.02970588 15.73158816 -2.54468412 12.34724689 -2.9921875 8.90625 C-3.4046875 9.421875 -3.8171875 9.9375 -4.2421875 10.46875 C-4.8196875 10.943125 -5.3971875 11.4175 -5.9921875 11.90625 C-8.1796875 11.59375 -8.1796875 11.59375 -9.9921875 10.90625 C-9.40823544 7.39475159 -8.15939105 5.61593242 -5.6796875 3.09375 C-5.08542969 2.46855469 -4.49117187 1.84335937 -3.87890625 1.19921875 C-1.9921875 -0.09375 -1.9921875 -0.09375 0 0 Z " fill="#0BB613" transform="translate(182.9921875,294.09375)"/>
<path d="M0 0 C1.32 0.33 2.64 0.66 4 1 C1.58864833 16.80774982 -8.95701223 30.99685292 -21.5625 40.5 C-34.51215418 49.23092831 -48.3140097 54.27519281 -64 54 C-63.505 54.598125 -63.01 55.19625 -62.5 55.8125 C-61 58 -61 58 -61 61 C-63.0625 61.4375 -63.0625 61.4375 -66 61 C-68.78647331 58.99916521 -70.99372829 56.78195235 -73 54 C-73.375 51.5 -73.375 51.5 -72 49 C-69.89900972 46.36154709 -67.81714855 43.87809903 -65 42 C-62.76953125 42.3046875 -62.76953125 42.3046875 -61 43 C-61.50603992 45.16874252 -61.99983813 46.99967627 -63 49 C-47.01904842 47.68525505 -34.59526633 43.26742833 -22 33 C-21.16597656 32.37222656 -20.33195312 31.74445313 -19.47265625 31.09765625 C-10.98023908 23.8931886 -6.25755503 14.05062172 -2 4 C-1.34569886 2.66055525 -0.6844342 1.32430059 0 0 Z " fill="#0DB716" transform="translate(318,315)"/>
<path d="M0 0 C0.58716797 0.22921143 1.17433594 0.45842285 1.77929688 0.69458008 C0.92290233 6.68166508 -4.39976306 10.42714677 -8.47070312 14.50708008 C-9.33050781 15.40362305 -10.1903125 16.30016602 -11.07617188 17.22387695 C-11.91277344 18.0662793 -12.749375 18.90868164 -13.61132812 19.77661133 C-14.37477539 20.55238525 -15.13822266 21.32815918 -15.92480469 22.12744141 C-18.22070312 23.69458008 -18.22070312 23.69458008 -20.83935547 23.57348633 C-24.17755458 22.34142596 -26.09205922 20.38939501 -28.59570312 17.88208008 C-29.4903125 17.00938477 -30.38492188 16.13668945 -31.30664062 15.23754883 C-33.22070312 12.69458008 -33.22070312 12.69458008 -33.00976562 10.37036133 C-32.749375 9.81735352 -32.48898438 9.2643457 -32.22070312 8.69458008 C-28.59457114 9.26417161 -26.96552571 10.61832542 -24.47070312 13.25708008 C-23.85710937 13.89774414 -23.24351562 14.5384082 -22.61132812 15.19848633 C-22.15242187 15.69219727 -21.69351563 16.1859082 -21.22070312 16.69458008 C-18.05461522 15.30572401 -16.04006507 13.70430263 -13.68945312 11.18286133 C-13.04363281 10.50803711 -12.3978125 9.83321289 -11.73242188 9.13793945 C-10.38541503 7.71115842 -9.04429783 6.27879515 -7.70898438 4.84106445 C-7.06316406 4.17010742 -6.41734375 3.49915039 -5.75195312 2.80786133 C-4.87893555 1.87647339 -4.87893555 1.87647339 -3.98828125 0.92626953 C-2.22070312 -0.30541992 -2.22070312 -0.30541992 0 0 Z " fill="#0AB612" transform="translate(268.220703125,286.305419921875)"/>
</svg>
